<?xml version="1.0" standalone="no"?>
<!DOCTYPE svg PUBLIC "-//W3C//DTD SVG 20010904//EN"
 "http://www.w3.org/TR/2001/REC-SVG-20010904/DTD/svg10.dtd">
<svg version="1.0" xmlns="http://www.w3.org/2000/svg"
 width="600.000000pt" height="600.000000pt" viewBox="0 0 600.000000 600.000000"
 preserveAspectRatio="xMidYMid meet">
<g transform="translate(0.000000,600.000000) scale(0.066667,-0.066667)"
fill="#ff5080" stroke="none">
<path d="M6483 5674 c-19 -17 -60 -124 -115 -304 -86 -280 -119 -387 -368
-1175 -160 -505 -159 -496 -42 -502 107 -6 69 -90 333 762 122 392 255 822
297 955 42 133 72 253 67 266 -13 34 -132 32 -172 -2z"/>
<path d="M3008 5597 c-349 -102 -519 -389 -402 -680 32 -81 155 -187 327 -281
378 -205 457 -271 457 -382 0 -243 -403 -179 -603 96 -123 168 -134 180 -162
180 -76 0 -90 -96 -51 -365 37 -254 68 -295 178 -235 69 37 78 37 286 -7 441
-93 843 174 813 542 -14 173 -86 255 -358 404 -453 249 -540 334 -475 466 93
189 331 118 537 -161 154 -207 231 -147 197 156 -30 267 -70 325 -193 276 -49
-19 -72 -19 -169 -2 -151 27 -274 24 -382 -7z"/>
<path d="M4523 5597 c-513 -150 -766 -742 -535 -1252 172 -379 690 -546 1173
-378 254 88 344 196 344 409 0 87 7 130 29 169 75 135 80 150 54 189 l-24 36
-336 0 c-389 0 -417 -6 -410 -88 4 -48 13 -57 91 -95 118 -58 137 -93 138
-245 1 -173 -45 -220 -214 -219 -287 3 -459 289 -460 767 l0 233 50 102 c81
166 231 243 398 205 147 -33 217 -89 368 -296 84 -116 126 -140 190 -111 47
21 48 95 5 340 -46 267 -78 302 -215 237 -48 -23 -61 -23 -177 0 -160 32 -353
30 -469 -3z"/>
<path d="M1628 5138 c-314 -157 -571 -285 -572 -285 -25 0 -10 -178 15 -189
17 -8 268 -119 557 -248 288 -128 536 -237 551 -241 23 -8 26 5 26 132 l0 141
-392 157 c-215 87 -393 161 -396 166 -3 5 173 89 390 187 l396 180 5 140 c2
77 1 141 -3 142 -4 2 -264 -125 -577 -282z"/>
<path d="M6630 5276 l1 -138 303 -139 c167 -76 347 -158 401 -183 l98 -44 -53
-21 c-29 -12 -209 -85 -401 -162 l-349 -141 0 -69 c0 -38 -4 -102 -10 -142
-13 -93 -42 -102 528 154 255 115 503 225 551 244 l86 36 0 87 0 87 -570 285
c-313 157 -573 285 -577 285 -5 0 -8 -62 -8 -139z"/>
</g>
</svg>
